<?xml version="1.0" encoding="UTF-8" standalone="no"?>
<!-- Created with Inkscape (http://www.inkscape.org/) -->

<svg
   width="1000"
   height="1000"
   viewBox="0 0 1000 1000"
   version="1.1"
   id="svg1"
   xml:space="preserve"
   xmlns:xlink="http://www.w3.org/1999/xlink"
   xmlns="http://www.w3.org/2000/svg"
   xmlns:svg="http://www.w3.org/2000/svg"
   xmlns:rdf="http://www.w3.org/1999/02/22-rdf-syntax-ns#"
   xmlns:cc="http://creativecommons.org/ns#"
   xmlns:dc="http://purl.org/dc/elements/1.1/"><title
     id="title4">Open Business Alliance logo</title><defs
     id="defs1"><linearGradient
       id="linearGradient48"><stop
         style="stop-color:#ff0000;stop-opacity:1;"
         offset="0"
         id="stop48" /><stop
         style="stop-color:#ffa500;stop-opacity:1;"
         offset="0.2"
         id="stop50" /><stop
         style="stop-color:#ffff00;stop-opacity:1;"
         offset="0.4"
         id="stop51" /><stop
         style="stop-color:#00ff00;stop-opacity:1;"
         offset="0.6"
         id="stop52" /><stop
         style="stop-color:#0000ff;stop-opacity:1;"
         offset="0.8"
         id="stop53" /><stop
         style="stop-color:#ff00ff;stop-opacity:1;"
         offset="1"
         id="stop49" /></linearGradient><linearGradient
       xlink:href="#linearGradient48"
       id="linearGradient49"
       x1="182.5"
       y1="500"
       x2="317.5"
       y2="500"
       gradientUnits="userSpaceOnUse" /><linearGradient
       xlink:href="#linearGradient48"
       id="linearGradient55"
       x1="112.5"
       y1="480"
       x2="247.5"
       y2="480"
       gradientUnits="userSpaceOnUse" /><linearGradient
       xlink:href="#linearGradient48"
       id="linearGradient57"
       x1="252.5"
       y1="480"
       x2="387.5"
       y2="480"
       gradientUnits="userSpaceOnUse" /><linearGradient
       xlink:href="#linearGradient48"
       id="linearGradient59"
       x1="612.5"
       y1="480"
       x2="747.5"
       y2="480"
       gradientUnits="userSpaceOnUse" /><linearGradient
       xlink:href="#linearGradient48"
       id="linearGradient60"
       x1="752.5"
       y1="480"
       x2="887.5"
       y2="480"
       gradientUnits="userSpaceOnUse" /><linearGradient
       xlink:href="#linearGradient48"
       id="linearGradient61"
       x1="682.5"
       y1="500"
       x2="817.5"
       y2="500"
       gradientUnits="userSpaceOnUse" /></defs><g
     id="g58"
     style="display:inline"><path
       style="fill:#c0c0c0;fill-opacity:1;stroke:#000000;stroke-width:8;stroke-linecap:square;stroke-linejoin:miter;stroke-dasharray:none;stroke-dashoffset:0;stroke-opacity:1"
       d="M 300,900 V 610 h 80 V 150 h 240 v 460 h 80 v 290 z"
       id="path46" /><path
       style="fill:#0000ff;fill-opacity:1;stroke:#000000;stroke-width:8;stroke-linecap:square;stroke-linejoin:miter;stroke-dasharray:none;stroke-dashoffset:0;stroke-opacity:1"
       d="M 380,600 V 900"
       id="path47" /><path
       style="fill:#0000ff;fill-opacity:1;stroke:#000000;stroke-width:8;stroke-linecap:square;stroke-linejoin:miter;stroke-dasharray:none;stroke-dashoffset:0;stroke-opacity:1"
       d="M 620,600 V 900"
       id="path48" /><path
       style="fill:#0000ff;fill-opacity:1;stroke:#000000;stroke-width:8;stroke-linecap:square;stroke-linejoin:miter;stroke-dasharray:none;stroke-dashoffset:0;stroke-opacity:1"
       d="M 460,750 V 150"
       id="path50" /><path
       style="fill:#0000ff;fill-opacity:1;stroke:#000000;stroke-width:8;stroke-linecap:square;stroke-linejoin:miter;stroke-dasharray:none;stroke-dashoffset:0;stroke-opacity:1"
       d="M 540,150 V 750"
       id="path51" /><path
       style="fill:#0000ff;fill-opacity:1;stroke:#000000;stroke-width:8;stroke-linecap:square;stroke-linejoin:miter;stroke-dasharray:none;stroke-dashoffset:0;stroke-opacity:1"
       d="M 620,270 H 380"
       id="path52" /><path
       style="fill:#0000ff;fill-opacity:1;stroke:#000000;stroke-width:8;stroke-linecap:square;stroke-linejoin:miter;stroke-dasharray:none;stroke-dashoffset:0;stroke-opacity:1"
       d="M 620,390 H 380"
       id="path53" /><path
       style="fill:#0000ff;fill-opacity:1;stroke:#000000;stroke-width:8;stroke-linecap:square;stroke-linejoin:miter;stroke-dasharray:none;stroke-dashoffset:0;stroke-opacity:1"
       d="M 620,510 H 380"
       id="path54" /><path
       style="fill:#0000ff;fill-opacity:1;stroke:#000000;stroke-width:8;stroke-linecap:square;stroke-linejoin:miter;stroke-dasharray:none;stroke-dashoffset:0;stroke-opacity:1"
       d="M 620,630 H 380"
       id="path55" /><path
       style="fill:#0000ff;fill-opacity:1;stroke:#000000;stroke-width:8;stroke-linecap:square;stroke-linejoin:miter;stroke-dasharray:none;stroke-dashoffset:0;stroke-opacity:1"
       d="M 620,750 H 380"
       id="path56" /><path
       style="fill:#0000ff;fill-opacity:1;stroke:#000000;stroke-width:8;stroke-linecap:square;stroke-linejoin:miter;stroke-dasharray:none;stroke-dashoffset:0;stroke-opacity:1"
       d="M 420,750 V 900"
       id="path57" /><path
       style="fill:#0000ff;fill-opacity:1;stroke:#000000;stroke-width:8;stroke-linecap:square;stroke-linejoin:miter;stroke-dasharray:none;stroke-dashoffset:0;stroke-opacity:1"
       d="M 580,750 V 900"
       id="path58" /><rect
       style="fill:none;fill-opacity:1;stroke:#000000;stroke-width:7.48331;stroke-linecap:square;stroke-linejoin:miter;stroke-dasharray:none;stroke-dashoffset:0;stroke-opacity:1"
       id="rect58"
       width="40"
       height="70"
       x="320"
       y="630" /><rect
       style="fill:none;fill-opacity:1;stroke:#000000;stroke-width:7.48331;stroke-linecap:square;stroke-linejoin:miter;stroke-dasharray:none;stroke-dashoffset:0;stroke-opacity:1"
       id="rect58-31"
       width="40"
       height="70"
       x="640"
       y="630" /><rect
       style="fill:none;fill-opacity:1;stroke:#000000;stroke-width:7.48331;stroke-linecap:square;stroke-linejoin:miter;stroke-dasharray:none;stroke-dashoffset:0;stroke-opacity:1"
       id="rect58-3"
       width="40"
       height="70"
       x="320"
       y="720" /><rect
       style="fill:none;fill-opacity:1;stroke:#000000;stroke-width:7.48331;stroke-linecap:square;stroke-linejoin:miter;stroke-dasharray:none;stroke-dashoffset:0;stroke-opacity:1"
       id="rect58-3-4"
       width="40"
       height="70"
       x="640"
       y="720" /><rect
       style="fill:none;fill-opacity:1;stroke:#000000;stroke-width:7.48331;stroke-linecap:square;stroke-linejoin:miter;stroke-dasharray:none;stroke-dashoffset:0;stroke-opacity:1"
       id="rect58-6"
       width="40"
       height="70"
       x="320"
       y="810" /><rect
       style="fill:none;fill-opacity:1;stroke:#000000;stroke-width:7.48331;stroke-linecap:square;stroke-linejoin:miter;stroke-dasharray:none;stroke-dashoffset:0;stroke-opacity:1"
       id="rect58-6-9"
       width="40"
       height="70"
       x="640"
       y="810" /></g><path
     style="display:inline;fill:#ffd700;fill-opacity:1;stroke:#000000;stroke-width:10;stroke-linecap:square;stroke-dasharray:none"
     d="m 110,650 c 93.3,13.3 186.7,13.3 280,0 -93.3,-13.3 -186.7,-13.3 -280,0 z"
     id="path71" /><path
     style="display:inline;fill:#ffd700;fill-opacity:1;stroke:#000000;stroke-width:10;stroke-linecap:square;stroke-dasharray:none"
     d="m 610,650 c 93.3,13.3 186.7,13.3 280,0 -93.3,-13.3 -186.7,-13.3 -280,0 z"
     id="path71-2" /><path
     style="fill:#ffd700;fill-opacity:1;stroke:#000000;stroke-width:10;stroke-linecap:square;stroke-dasharray:none"
     d="M 250,640 V 190"
     id="path72" /><path
     style="fill:#ffd700;fill-opacity:1;stroke:#000000;stroke-width:10;stroke-linecap:square;stroke-dasharray:none"
     d="M 750,640 V 190"
     id="path72-9" /><path
     style="fill:url(#linearGradient55);fill-opacity:1;stroke:#000000;stroke-width:10;stroke-linecap:round;stroke-linejoin:round;stroke-dasharray:none;stroke-dashoffset:0;stroke-opacity:1"
     d="m 115.3,484.8 c -4,-12.2 8.2,-117.5 12,-125.3 8.1,-8.2 32.5,-8.2 40.5,-12.4 0,0 2.8,-4.4 4.2,-8 0.4,-1.2 0.4,-2.6 0,-4 -0.8,-1.6 -2,-2.2 -4.2,-4.2 -3.6,-3 -6.6,-7.4 -8,-12 -2,-6.3 -2,-13.7 0,-20.1 1.4,-4.7 4.4,-8.8 8,-12.2 2.2,-2 5.2,-3.4 8,-4.2 2.8,-0.6 5.7,-0.6 8.3,0 2.8,0.8 5.8,2.2 8,4.2 3.6,3.4 6.6,7.6 8,12.2 1.8,6.3 1.8,13.8 0,20.1 -1.4,4.6 -4.4,9 -8,12 -2.2,2 -3.4,2.6 -4,4.2 -0.6,1.4 -0.6,2.8 0,4 1.4,3.6 4,8 4,8 8,4.2 32.6,4.2 40.3,12.4 4,7.8 16.4,113.1 12.2,125.3 -4,4 -8.2,4 -12.2,0 -3.8,-12.2 -15.9,-85.2 -15.9,-85.2 0,0 -4,20.5 -4,24.5 0,3.8 8.2,44.1 8.2,44.1 0,0 -8.2,194.2 -12.4,206.4 -4,4.6 -16.2,4.6 -20.2,0 -4,-12.3 -4,-117.4 -8,-125.4 -4.3,8 -4.3,113.2 -8.1,125.4 -4.2,4.6 -16.4,4.6 -20.4,0 -4,-12.3 -12,-206.4 -12,-206.4 0,0 8,-40.3 8,-44.1 0,-4 -4,-24.5 -4,-24.5 0,0 -11.9,73 -16.1,85.2 -3.8,4 -8,4 -12.2,0 z"
     id="path14-1" /><path
     style="fill:url(#linearGradient57);fill-opacity:1;stroke:#000000;stroke-width:10;stroke-linecap:round;stroke-linejoin:round;stroke-dasharray:none;stroke-dashoffset:0;stroke-opacity:1"
     d="m 255.3,484.8 c -4,-12.2 8.2,-117.4 12,-125.3 8.1,-8.2 32.5,-8.2 40.5,-12.4 0,0 2.8,-4.4 4.2,-8 0.4,-1.2 0.4,-2.6 0,-4 -0.8,-1.6 -2,-2.2 -4.2,-4.2 -3.6,-3 -6.6,-7.4 -8,-12 -2,-6.3 -2,-13.7 0,-20.1 1.4,-4.6 4.4,-8.8 8,-12.2 2.2,-2 5.2,-3.4 8,-4.2 2.8,-0.6 5.7,-0.6 8.3,0 2.8,0.8 5.8,2.2 8,4.2 3.6,3.4 6.6,7.6 8,12.2 1.8,6.4 1.8,13.8 0,20.1 -1.4,4.6 -4.4,9 -8,12 -2.2,2 -3.4,2.6 -4,4.2 -0.6,1.4 -0.6,2.8 0,4 1.4,3.6 4,8 4,8 8,4.2 32.6,4.2 40.3,12.4 4,7.9 16.4,113.1 12.2,125.3 -4,4 -8.2,4 -12.2,0 -3.8,-12.2 -15.9,-85.2 -15.9,-85.2 0,0 -4,20.5 -4,24.5 0,3.8 8.2,44.1 8.2,44.1 0,0 -8.2,194.2 -12.4,206.4 -4,4.6 -16.2,4.6 -20.2,0 -4,-12.2 -4,-117.4 -8,-125.4 -4.3,8 -4.3,113.2 -8.1,125.4 -4.2,4.6 -16.4,4.6 -20.4,0 -4,-12.2 -12,-206.4 -12,-206.4 0,0 8,-40.3 8,-44.1 0,-4 -4,-24.5 -4,-24.5 0,0 -11.9,73 -16.1,85.2 -3.8,4 -8,4 -12.2,0 z"
     id="path14-6" /><path
     style="fill:url(#linearGradient49);fill-opacity:1;stroke:#000000;stroke-width:10;stroke-linecap:round;stroke-linejoin:round;stroke-dasharray:none;stroke-dashoffset:0;stroke-opacity:1"
     d="m 185.3,504.8 c -4,-12.2 8.2,-117.4 12,-125.3 8.1,-8.2 32.5,-8.2 40.5,-12.4 0,0 2.8,-4.4 4.2,-8 0.4,-1.2 0.4,-2.6 0,-4 -0.8,-1.6 -2,-2.2 -4.2,-4.2 -3.6,-3 -6.6,-7.4 -8,-12 -2,-6.3 -2,-13.7 0,-20.1 1.4,-4.6 4.4,-8.8 8,-12.2 2.2,-2 5.2,-3.4 8,-4.2 2.8,-0.6 5.7,-0.6 8.3,0 2.8,0.8 5.8,2.2 8,4.2 3.6,3.4 6.6,7.6 8,12.2 1.8,6.4 1.8,13.8 0,20.1 -1.4,4.6 -4.4,9 -8,12 -2.2,2 -3.4,2.6 -4,4.2 -0.6,1.4 -0.6,2.8 0,4 1.4,3.6 4,8 4,8 8,4.2 32.6,4.2 40.3,12.4 4,7.9 16.4,113.1 12.2,125.3 -4,4 -8.2,4 -12.2,0 -3.8,-12.2 -15.9,-85.2 -15.9,-85.2 0,0 -4,20.5 -4,24.5 0,3.8 8.2,44.1 8.2,44.1 0,0 -8.2,194.2 -12.4,206.4 -4,4.6 -16.2,4.6 -20.2,0 -4,-12.2 -4,-117.4 -8,-125.4 -4.3,8 -4.3,113.2 -8.1,125.4 -4.2,4.6 -16.4,4.6 -20.4,0 -4,-12.2 -12,-206.4 -12,-206.4 0,0 8,-40.3 8,-44.1 0,-4 -4,-24.5 -4,-24.5 0,0 -11.9,73 -16.1,85.2 -3.8,4 -8,4 -12.2,0 z"
     id="path14" /><path
     style="fill:url(#linearGradient59);fill-opacity:1;stroke:#000000;stroke-width:10;stroke-linecap:round;stroke-linejoin:round;stroke-dasharray:none;stroke-dashoffset:0;stroke-opacity:1"
     d="m 615.3,484.8 c -4,-12.2 8.2,-117.5 12,-125.3 8.1,-8.2 32.5,-8.2 40.5,-12.4 0,0 2.8,-4.4 4.2,-8 0.4,-1.2 0.4,-2.6 0,-4 -0.8,-1.6 -2,-2.2 -4.2,-4.2 -3.6,-3 -6.6,-7.4 -8,-12 -2,-6.3 -2,-13.7 0,-20.1 1.4,-4.7 4.4,-8.8 8,-12.2 2.2,-2 5.2,-3.4 8,-4.2 2.8,-0.6 5.7,-0.6 8.3,0 2.8,0.8 5.8,2.2 8,4.2 3.6,3.4 6.6,7.6 8,12.2 1.8,6.3 1.8,13.8 0,20.1 -1.4,4.6 -4.4,9 -8,12 -2.2,2 -3.4,2.6 -4,4.2 -0.6,1.4 -0.6,2.8 0,4 1.4,3.6 4,8 4,8 8,4.2 32.6,4.2 40.3,12.4 4,7.8 16.4,113.1 12.2,125.3 -4,4 -8.2,4 -12.2,0 -3.8,-12.2 -15.9,-85.2 -15.9,-85.2 0,0 -4,20.5 -4,24.5 0,3.8 8.2,44.1 8.2,44.1 0,0 -8.2,194.2 -12.4,206.4 -4,4.6 -16.2,4.6 -20.2,0 -4,-12.3 -4,-117.4 -8,-125.4 -4.3,8 -4.3,113.2 -8.1,125.4 -4.2,4.6 -16.4,4.6 -20.4,0 -4,-12.3 -12,-206.4 -12,-206.4 0,0 8,-40.3 8,-44.1 0,-4 -4,-24.5 -4,-24.5 0,0 -11.9,73 -16.1,85.2 -3.8,4 -8,4 -12.2,0 z"
     id="path14-1-5" /><path
     style="fill:url(#linearGradient60);fill-opacity:1;stroke:#000000;stroke-width:10;stroke-linecap:round;stroke-linejoin:round;stroke-dasharray:none;stroke-dashoffset:0;stroke-opacity:1"
     d="m 755.3,484.8 c -4,-12.2 8.2,-117.4 12,-125.3 8.1,-8.2 32.5,-8.2 40.5,-12.4 0,0 2.8,-4.4 4.2,-8 0.4,-1.2 0.4,-2.6 0,-4 -0.8,-1.6 -2,-2.2 -4.2,-4.2 -3.6,-3 -6.6,-7.4 -8,-12 -2,-6.3 -2,-13.7 0,-20.1 1.4,-4.6 4.4,-8.8 8,-12.2 2.2,-2 5.2,-3.4 8,-4.2 2.8,-0.6 5.7,-0.6 8.3,0 2.8,0.8 5.8,2.2 8,4.2 3.6,3.4 6.6,7.6 8,12.2 1.8,6.4 1.8,13.8 0,20.1 -1.4,4.6 -4.4,9 -8,12 -2.2,2 -3.4,2.6 -4,4.2 -0.6,1.4 -0.6,2.8 0,4 1.4,3.6 4,8 4,8 8,4.2 32.6,4.2 40.3,12.4 4,7.9 16.4,113.1 12.2,125.3 -4,4 -8.2,4 -12.2,0 -3.8,-12.2 -15.9,-85.2 -15.9,-85.2 0,0 -4,20.5 -4,24.5 0,3.8 8.2,44.1 8.2,44.1 0,0 -8.2,194.2 -12.4,206.4 -4,4.6 -16.2,4.6 -20.2,0 -4,-12.2 -4,-117.4 -8,-125.4 -4.3,8 -4.3,113.2 -8.1,125.4 -4.2,4.6 -16.4,4.6 -20.4,0 -4,-12.2 -12,-206.4 -12,-206.4 0,0 8,-40.3 8,-44.1 0,-4 -4,-24.5 -4,-24.5 0,0 -11.9,73 -16.1,85.2 -3.8,4 -8,4 -12.2,0 z"
     id="path14-6-9" /><path
     style="fill:url(#linearGradient61);fill-opacity:1;stroke:#000000;stroke-width:10;stroke-linecap:round;stroke-linejoin:round;stroke-dasharray:none;stroke-dashoffset:0;stroke-opacity:1"
     d="m 685.3,504.8 c -4,-12.2 8.2,-117.4 12,-125.3 8.1,-8.2 32.5,-8.2 40.5,-12.4 0,0 2.8,-4.4 4.2,-8 0.4,-1.2 0.4,-2.6 0,-4 -0.8,-1.6 -2,-2.2 -4.2,-4.2 -3.6,-3 -6.6,-7.4 -8,-12 -2,-6.3 -2,-13.7 0,-20.1 1.4,-4.6 4.4,-8.8 8,-12.2 2.2,-2 5.2,-3.4 8,-4.2 2.8,-0.6 5.7,-0.6 8.3,0 2.8,0.8 5.8,2.2 8,4.2 3.6,3.4 6.6,7.6 8,12.2 1.8,6.4 1.8,13.8 0,20.1 -1.4,4.6 -4.4,9 -8,12 -2.2,2 -3.4,2.6 -4,4.2 -0.6,1.4 -0.6,2.8 0,4 1.4,3.6 4,8 4,8 8,4.2 32.6,4.2 40.3,12.4 4,7.9 16.4,113.1 12.2,125.3 -4,4 -8.2,4 -12.2,0 -3.8,-12.2 -15.9,-85.2 -15.9,-85.2 0,0 -4,20.5 -4,24.5 0,3.8 8.2,44.1 8.2,44.1 0,0 -8.2,194.2 -12.4,206.4 -4,4.6 -16.2,4.6 -20.2,0 -4,-12.2 -4,-117.4 -8,-125.4 -4.3,8 -4.3,113.2 -8.1,125.4 -4.2,4.6 -16.4,4.6 -20.4,0 -4,-12.2 -12,-206.4 -12,-206.4 0,0 8,-40.3 8,-44.1 0,-4 -4,-24.5 -4,-24.5 0,0 -11.9,73 -16.1,85.2 -3.8,4 -8,4 -12.2,0 z"
     id="path14-2" /><path
     style="display:inline;fill:#80c0ff;fill-opacity:1;stroke:#000000;stroke-width:10;stroke-linecap:square;stroke-dasharray:none"
     d="m 480,100 -30,100 c 33.3,13.3 66.7,13.3 100,0 L 520,100 Z"
     id="path68" /><path
     style="display:inline;fill:#ffd700;fill-opacity:1;stroke:#000000;stroke-width:10;stroke-linecap:square;stroke-dasharray:none"
     d="M 250,150 H 750 V 130 L 600,100 H 400 l -150,30 z"
     id="path67" /><circle
     style="display:inline;fill:#ffd700;fill-opacity:1;stroke:#000000;stroke-width:10;stroke-linecap:square;stroke-dasharray:none"
     id="path66"
     cx="250"
     cy="150"
     r="40" /><circle
     style="display:inline;fill:#ffd700;fill-opacity:1;stroke:#000000;stroke-width:10;stroke-linecap:square;stroke-dasharray:none"
     id="path66-7"
     cx="750"
     cy="150"
     r="40" /><path
     style="display:inline;fill:#ffd700;fill-opacity:1;stroke:#000000;stroke-width:10;stroke-linecap:square;stroke-dasharray:none"
     d="m 490,150 v 20 h -10 l 20,30 20,-30 h -10 v -20 z"
     id="path69" /><path
     style="display:inline;fill:#ffd700;fill-opacity:1;stroke:#000000;stroke-width:10;stroke-linecap:square;stroke-dasharray:none"
     d="m 110,650 c 100,66.7 180,66.7 280,0 -100,13.3 -180,13.3 -280,0 z"
     id="path70" /><path
     style="display:inline;fill:#ffd700;fill-opacity:1;stroke:#000000;stroke-width:10;stroke-linecap:square;stroke-dasharray:none"
     d="m 610,650 c 100,66.7 180,66.7 280,0 -100,13.3 -180,13.3 -280,0 z"
     id="path70-3" /><metadata
     id="metadata4"><rdf:RDF><cc:Work
         rdf:about=""><dc:title>Open Business Alliance logo</dc:title><dc:date>2025-02-03</dc:date><dc:creator><cc:Agent><dc:title>Tony M. Bishop</dc:title></cc:Agent></dc:creator><dc:rights><cc:Agent><dc:title>Copyright © 2025 Tony M. Bishop, all rights reserved.</dc:title></cc:Agent></dc:rights><dc:publisher><cc:Agent><dc:title>Open Business Alliance</dc:title></cc:Agent></dc:publisher></cc:Work></rdf:RDF></metadata><path
     style="fill:#ffd700;fill-opacity:1;stroke:#000000;stroke-width:10;stroke-linecap:square;stroke-dasharray:none"
     d="M 149.3,654.8 250,190"
     id="path73" /><path
     style="fill:#ffd700;fill-opacity:1;stroke:#000000;stroke-width:10;stroke-linecap:square;stroke-dasharray:none"
     d="M 350.7,654.8 250,190"
     id="path74" /><path
     style="fill:#ffd700;fill-opacity:1;stroke:#000000;stroke-width:10;stroke-linecap:square;stroke-dasharray:none"
     d="M 649.3,654.8 750,190"
     id="path73-1" /><path
     style="fill:#ffd700;fill-opacity:1;stroke:#000000;stroke-width:10;stroke-linecap:square;stroke-dasharray:none"
     d="M 850.7,654.8 750,190"
     id="path74-9" /></svg>
